<svg width="55" height="28" viewBox="0 0 55 28" fill="none" xmlns="http://www.w3.org/2000/svg">
<path d="M0.714918 27.9215V0.921537H5.46692V23.9255L4.02692 23.0255L22.0989 0.921537H27.2469L4.96292 27.9215H0.714918ZM13.5669 14.3495L16.9149 11.0735L27.6429 27.9215H22.2069L13.5669 14.3495ZM44.96 0.921537C46.976 0.921537 48.716 1.28154 50.18 2.00154C51.668 2.72154 52.808 3.72954 53.6 5.02554C54.416 6.29754 54.824 7.77354 54.824 9.45354C54.824 11.1335 54.416 12.6215 53.6 13.9175C52.808 15.1895 51.668 16.1855 50.18 16.9055C48.716 17.6255 46.976 17.9855 44.96 17.9855H32.828V13.8815H44.78C46.412 13.8815 47.684 13.4855 48.596 12.6935C49.532 11.9015 50 10.8215 50 9.45354C50 8.08554 49.532 7.00554 48.596 6.21354C47.684 5.42154 46.412 5.02554 44.78 5.02554H33.296L35.42 2.64954V27.9215H30.668V0.921537H44.96Z" fill="white"/>
</svg>
